<svg version="1.2" xmlns="http://www.w3.org/2000/svg" viewBox="0 0 530 444" width="530" height="444"><style>.a{fill:#fff}.b{fill:#222}.c{fill:#ea580c}.d{fill:#b4dcfa}.e{opacity:.5;fill:#b4dcfa}.f{opacity:.9;fill:#ea580c}.g{opacity:.7;fill:#b4dcfa}.h{fill:#e3b4fa}.i{fill:#ffcbae}.j{fill:#ffcd9f}.k{opacity:.3;fill:#b4dcfa}</style><path class="a" d="m480 172c3.1 2.4 9.2 5.6 10.5 4 0.3-0.5 34.8-53 35.2-53.5l-14.8-10.6c-0.5 0.6-34.5 52.1-35 52.7-1.2 1.6 1 4.9 4.1 7.4z"/><path fill-rule="evenodd" class="b" d="m525.7 122.5q0 0 0 0c-0.9 1.3-10.2 15.4-19 28.8-8.2 12.6-16.1 24.5-16.2 24.7-1.3 1.6-7.4-1.6-10.5-4-3.1-2.5-5.3-5.8-4.1-7.4 0.3-0.3 9.6-14.3 18.5-27.8 6.1-9.2 12-18.1 14.8-22.4 0.9-1.2 1.4-2.1 1.6-2.4q0.1 0 0.1-0.1zm-36.4 51q0.1 0 0.1 0 0 0-0.1 0zm0.2-1.5c1-1.4 2.4-3.5 4-6 3-4.5 6.8-10.3 10.7-16.2l1.3-2.1c4.4-6.6 8.8-13.2 12-18.3 1.7-2.5 3.1-4.6 4.1-6.1q0 0 0 0l-9.9-7c-1 1.4-2.3 3.4-3.9 5.8-3 4.5-6.9 10.5-10.9 16.5l-1 1.4c-4.3 6.5-8.6 13-11.9 18-1.6 2.4-3 4.5-4 6q-0.7 1.1-1.1 1.7-0.1 0-0.1 0.1-0.1 0.1-0.2 0.2 0.1 0.2 0.3 0.5c0.5 0.9 1.6 2.1 2.9 3.2 1.4 1.1 3.5 2.3 5.3 3.1q0.9 0.4 1.5 0.6 0.4-0.5 0.9-1.4z"/><path class="a" d="m480 262.7c3.1-2.5 9.2-5.6 10.5-4.1 0.3 0.5 34.8 53 35.2 53.6l-14.8 10.5c-0.5-0.6-34.5-52-35-52.7-1.2-1.6 1-4.9 4.1-7.3z"/><path fill-rule="evenodd" class="b" d="m510.9 322.7q0 0-0.1-0.1c-0.2-0.3-0.7-1.1-1.6-2.4-2.8-4.2-8.7-13.2-14.8-22.4-8.9-13.5-18.2-27.5-18.5-27.8-1.2-1.6 1-4.9 4.1-7.3 3.1-2.5 9.2-5.6 10.5-4.1 0.1 0.3 8 12.2 16.2 24.7 8.8 13.4 18.1 27.6 19 28.8q0 0.1 0 0.1zm-21.5-61.5q0 0-0.1 0 0.1 0 0.1 0zm-0.7 0.1q-0.6 0.2-1.6 0.6c-1.8 0.8-3.9 2-5.2 3.1-1.4 1.1-2.4 2.3-3 3.2q-0.2 0.3-0.2 0.5 0.1 0.1 0.2 0.2 0 0.1 0 0.1 0.4 0.6 1.2 1.8c0.9 1.4 2.3 3.5 4 6 3.2 4.9 7.5 11.4 11.9 17.9l0.9 1.4c4 6.1 7.9 12 10.9 16.5 1.6 2.4 2.9 4.4 3.9 5.9l9.9-7.1q0 0 0 0c-1-1.5-2.4-3.6-4-6.1-3.3-5-7.7-11.7-12-18.3l-1.4-2.1c-3.9-5.9-7.7-11.7-10.6-16.2-1.7-2.5-3.1-4.5-4-6q-0.6-0.8-0.9-1.4z"/><path class="a" d="m522.5 112.1c3.9 3.1 5.1 8.2 2.6 11.2-2.4 3.1-7.6 3.1-11.5-0.1-4-3.1-5.1-8.1-2.7-11.2 2.5-3.1 7.7-3.1 11.6 0.1z"/><path fill-rule="evenodd" class="b" d="m513.6 123.2c-4-3.1-5.1-8.2-2.7-11.2 2.5-3.1 7.7-3.1 11.6 0.1 3.9 3.1 5.1 8.2 2.6 11.2-2.4 3.1-7.6 3.1-11.5-0.1zm9.2-1.7c1-1.3 1-4.5-2.2-7.1-3.2-2.5-6.3-1.9-7.3-0.6-1.1 1.3-1 4.5 2.1 7.1 3.2 2.5 6.4 1.9 7.4 0.6z"/><path class="a" d="m522.5 322.6c3.9-3.2 5.1-8.2 2.6-11.3-2.4-3.1-7.6-3-11.5 0.1-4 3.2-5.1 8.2-2.7 11.3 2.5 3.1 7.7 3 11.6-0.1z"/><path fill-rule="evenodd" class="b" d="m525.1 311.3c2.5 3.1 1.3 8.1-2.6 11.3-3.9 3.1-9.1 3.2-11.6 0.1-2.4-3.1-1.3-8.1 2.7-11.3 3.9-3.1 9.1-3.2 11.5-0.1zm-9.7 2.5c-3.1 2.5-3.2 5.7-2.1 7 1 1.3 4.1 2 7.3-0.6 3.2-2.5 3.2-5.7 2.2-7-1-1.3-4.2-2-7.4 0.6z"/><path fill-rule="evenodd" class="b" d="m195.8 415c-103.1 0-186.4-83.3-186.4-186.3 0-103 83.3-186.3 186.4-186.3 103.1 0 186.4 83.3 186.4 186.3 0 103-83.3 186.3-186.4 186.3z"/><path class="a" d="m372.8 219.3c0 102.9-83.5 186.3-186.4 186.3-102.9 0-186.4-83.4-186.4-186.3 0-102.9 83.5-186.3 186.4-186.3 102.9 0 186.4 83.4 186.4 186.3z"/><path fill-rule="evenodd" class="b" d="m0 219.3c0-102.9 83.5-186.3 186.4-186.3 102.9 0 186.4 83.4 186.4 186.3 0 102.9-83.5 186.3-186.4 186.3-102.9 0-186.4-83.4-186.4-186.3zm186.4 183.3c101.3 0 183.4-82.1 183.4-183.3 0-101.2-82.1-183.3-183.4-183.3-101.3 0-183.4 82.1-183.4 183.3 0 101.2 82.1 183.3 183.4 183.3z"/><path class="b" d="m344.5 219.3c0 87.3-70.8 158.1-158.1 158.1-87.4 0-158.2-70.8-158.2-158.1 0-87.3 70.8-158.1 158.2-158.1 87.3 0 158.1 70.8 158.1 158.1z"/><path class="c" d="m139.3 149.4c4-3.9 10.3-3.9 14.2 0l23.3 23.3c3.9 3.9 3.9 10.2 0 14.1l-23.3 23.3c-3.9 3.9-10.2 3.9-14.2 0l-23.2-23.3c-3.9-3.9-3.9-10.2 0-14.1z"/><path class="d" d="m179.4 126.6c3.9-3.9 10.2-3.9 14.1 0l15.2 15.2c3.9 3.9 3.9 10.2 0 14.1l-15.2 15.2c-3.9 3.9-10.2 3.9-14.1 0l-15.2-15.2c-3.9-3.9-3.9-10.2 0-14.1z"/><path class="e" d="m217.4 149.4c3.9-3.9 10.2-3.9 14.1 0l23.3 23.3c3.9 3.9 3.9 10.2 0 14.1l-23.3 23.3c-3.9 3.9-10.2 3.9-14.1 0l-23.3-23.3c-3.9-3.9-3.9-10.2 0-14.1z"/><path class="f" d="m248.2 196.6c4-3.9 10.3-3.9 14.2 0l15.1 15.1c3.9 3.9 3.9 10.2 0 14.1l-15.1 15.1c-3.9 3.9-10.2 3.9-14.2 0l-15.1-15.1c-3.9-3.9-3.9-10.2 0-14.1z"/><path class="d" d="m217.4 225.4c3.9-3.9 10.2-3.9 14.1 0l23.3 23.3c3.9 3.9 3.9 10.2 0 14.1l-23.3 23.3c-3.9 3.9-10.2 3.9-14.1 0l-23.3-23.3c-3.9-3.9-3.9-10.2 0-14.1z"/><path class="g" d="m178.4 266.4c3.9-3.9 10.2-3.9 14.1 0l17.4 17.4c3.9 3.9 3.9 10.2 0 14.1l-17.4 17.4c-3.9 3.9-10.2 3.9-14.1 0l-17.4-17.4c-3.9-3.9-3.9-10.2 0-14.1z"/><path class="c" d="m111.6 199.7c3.9-3.9 10.2-3.9 14.1 0l12.1 12c3.9 3.9 3.9 10.2 0 14.1l-12.1 12.1c-3.9 3.9-10.2 3.9-14.1 0l-12-12.1c-3.9-3.9-3.9-10.2 0-14.1z"/><path fill-rule="evenodd" class="a" d="m192.5 188.4l23.3 23.3c3.9 3.9 3.9 10.2 0 14.1l-23.3 23.3c-3.9 3.9-10.2 3.9-14.1 0l-23.3-23.3c-3.9-3.9-3.9-10.2 0-14.1l23.3-23.3c3.9-3.9 10.2-3.9 14.1 0z"/><path class="a" d="m178.4 188.4c3.9-3.9 10.2-3.9 14.1 0l23.3 23.3c3.9 3.9 3.9 10.2 0 14.1l-23.3 23.3c-3.9 3.9-10.2 3.9-14.1 0l-23.3-23.3c-3.9-3.9-3.9-10.2 0-14.1z"/><path class="c" d="m139.3 227.4c4-3.9 10.3-3.9 14.2 0l23.3 23.3c3.9 3.9 3.9 10.2 0 14.1l-23.3 23.3c-3.9 3.9-10.2 3.9-14.2 0l-23.2-23.3c-3.9-3.9-3.9-10.2 0-14.1z"/><path class="h" d="m292 127.1c2.5-2.5 6.6-2.5 9.1 0l12.4 12.7c2.5 2.6 2.5 6.8 0 9.4l-12.4 12.6c-2.5 2.6-6.6 2.6-9.1 0l-12.4-12.6c-2.5-2.6-2.5-6.8 0-9.4z"/><path class="h" d="m78.7 249.8c1.8-1.8 4.6-1.8 6.4 0l8.7 9c1.7 1.8 1.7 4.8 0 6.6l-8.7 9c-1.8 1.8-4.6 1.8-6.4 0l-8.7-9c-1.7-1.8-1.7-4.8 0-6.6z"/><path class="i" d="m139.7 100.8c3.3-1.8 6.9 1.8 5.2 5.2l-2.8 5.2c-0.6 1.1-0.6 2.4 0 3.5l2.8 5.3c1.7 3.3-1.9 6.9-5.2 5.1l-5.2-2.8c-1.1-0.5-2.4-0.5-3.6 0l-5.2 2.8c-3.3 1.8-6.9-1.8-5.1-5.1l2.7-5.3c0.6-1.1 0.6-2.4 0-3.5l-2.7-5.2c-1.8-3.4 1.8-7 5.1-5.2l5.2 2.8c1.2 0.6 2.5 0.6 3.6 0z"/><path fill-rule="evenodd" class="j" d="m153.9 343.5h46.1c1.3 0 2.4 1 2.4 2.3 0 1.3-1.1 2.4-2.4 2.4h-46.1c-1.3 0-2.3-1.1-2.3-2.4 0-1.3 1-2.3 2.3-2.3z"/><path fill-rule="evenodd" class="h" d="m204.8 93.2h38.5c1.3 0 2.4 1.1 2.4 2.4 0 1.3-1.1 2.3-2.4 2.3h-38.5c-1.3 0-2.4-1-2.4-2.3 0-1.3 1.1-2.4 2.4-2.4z"/><path fill-rule="evenodd" class="d" d="m62.6 163.8h27.3c1.3 0 2.4 1 2.4 2.3 0 1.3-1.1 2.4-2.4 2.4h-27.3c-1.3 0-2.4-1.1-2.4-2.4 0-1.3 1.1-2.3 2.4-2.3z"/><path fill-rule="evenodd" class="k" d="m291.4 261.6h31c1.3 0 2.4 1.1 2.4 2.4 0 1.3-1.1 2.3-2.4 2.3h-31c-1.3 0-2.4-1-2.4-2.3 0-1.3 1.1-2.4 2.4-2.4z"/><path fill-rule="evenodd" class="d" d="m267.8 261.6h11.3c1.3 0 2.4 1.1 2.4 2.4 0 1.3-1.1 2.3-2.4 2.3h-11.3c-1.3 0-2.3-1-2.3-2.3 0-1.3 1-2.4 2.3-2.4z"/><path class="d" d="m243.8 300.9l22.4 6.2c3.7 1 3.9 6.2 0.4 7.6l-0.3 0.1c-6 2.4-10.7 7.1-13.2 13l-0.4 1.1c-1.5 3.5-6.5 3.2-7.6-0.5l-6.2-22.6c-0.8-2.9 1.9-5.7 4.9-4.9z"/><path class="a" d="m354.9 224c0 81.9 13.9 163.9 46.7 191 9.4 0 28.9 0 37.7 0 39.7 0 71.9-85.5 71.9-191 0-105.5-32.2-191-71.9-191-17.3 0-36.2 0-36.2 0-33.5 29.4-48.2 113.7-48.2 191z"/><path fill-rule="evenodd" class="b" d="m403.1 33h36.2c39.7 0 71.9 85.5 71.9 191 0 105.5-32.2 191-71.9 191h-37.7c-32.8-27.1-46.7-109.1-46.7-191 0-77.3 14.7-161.6 48.2-191zm36.2 379c8.8 0 17.5-4.7 25.8-14 8.2-9.3 15.8-22.9 22.2-40 12.9-34.1 20.9-81.5 20.9-134 0-52.5-8-99.9-20.9-134-6.4-17.1-14-30.7-22.2-40-8.3-9.3-17-14-25.8-14h-35.1c-15.5 14.2-27.1 41.5-34.8 75.2-7.8 34.1-11.5 74.3-11.5 112.8 0 40.8 3.5 81.6 11 115.4 7.4 33.4 18.6 59.5 33.8 72.6z"/><path class="a" d="m330.4 224c0 105.5 32.3 191 72 191 39.8 0 72.1-85.5 72.1-191 0-105.5-32.3-191-72.1-191-39.7 0-72 85.5-72 191z"/><path fill-rule="evenodd" class="b" d="m402.4 415c-39.7 0-72-85.5-72-191 0-105.5 32.3-191 72-191 39.8 0 72.1 85.5 72.1 191 0 105.5-32.3 191-72.1 191zm-25.8-17c8.3 9.3 17.1 14 25.8 14 8.8 0 17.5-4.7 25.8-14 8.3-9.3 15.9-22.9 22.4-40 12.8-34.1 20.9-81.5 20.9-134 0-52.5-8.1-99.9-20.9-134-6.5-17.1-14.1-30.7-22.4-40-8.3-9.3-17-14-25.8-14-8.7 0-17.5 4.7-25.8 14-8.2 9.3-15.8 22.9-22.3 40-12.8 34.1-20.9 81.5-20.9 134 0 52.5 8.1 99.9 20.9 134 6.5 17.1 14.1 30.7 22.4 40z"/><path class="a" d="m337 224c0 69.9 10.7 139.8 35.3 163 7 0 21.3 0 27.9 0 29.7 0 53.8-73 53.8-163 0-90-24.1-163-53.8-163-12.9 0-28 0-28 0-25 25.1-35.2 97-35.2 163z"/><path fill-rule="evenodd" class="b" d="m372.2 61h28c29.7 0 53.8 73 53.8 163 0 90-24.1 163-53.8 163h-27.9c-24.6-23.2-35.3-93.1-35.3-163 0-66 10.2-137.9 35.2-163zm28 323c6.1 0 12.4-3.7 18.6-11.7 6.1-7.8 11.8-19.4 16.6-34 9.6-29.1 15.6-69.5 15.6-114.3 0-44.8-6-85.2-15.6-114.3-4.8-14.6-10.5-26.2-16.6-34-6.2-8-12.5-11.7-18.6-11.7h-26.8c-5.5 5.8-10.3 14.3-14.5 24.9-4.4 11.1-7.9 24.3-10.8 38.8-5.6 29.2-8.1 63.4-8.1 96.3 0 34.8 2.7 69.6 8.4 98.5 2.8 14.4 6.4 27.3 10.8 38 4.2 10.1 8.9 18.1 14.3 23.5z"/><path class="a" d="m319 224c0 90 23.7 163 53 163 29.3 0 53-73 53-163 0-90-23.7-163-53-163-29.3 0-53 73-53 163z"/><path fill-rule="evenodd" class="b" d="m372 387c-29.3 0-53-73-53-163 0-90 23.7-163 53-163 29.3 0 53 73 53 163 0 90-23.7 163-53 163zm-18.3-14.6c6.1 7.9 12.3 11.6 18.3 11.6 6 0 12.2-3.7 18.3-11.6 6-7.9 11.6-19.5 16.3-34.1 9.5-29.1 15.4-69.5 15.4-114.3 0-44.8-5.9-85.2-15.4-114.3-4.7-14.6-10.3-26.2-16.3-34.1-6.1-7.9-12.3-11.6-18.3-11.6-6 0-12.2 3.7-18.3 11.6-6 7.9-11.6 19.5-16.3 34.1-9.5 29.1-15.4 69.5-15.4 114.3 0 44.8 5.9 85.2 15.4 114.3 4.7 14.6 10.3 26.2 16.3 34.1z"/><path class="a" d="m382 49h13v15h-13z"/><path fill-rule="evenodd" class="b" d="m395 49v15h-13v-15zm-3 3h-7v9h7z"/><path class="a" d="m382 384h13v15h-13z"/><path fill-rule="evenodd" class="b" d="m395 384v15h-13v-15zm-3 3h-7v9h7z"/><path fill-rule="evenodd" class="b" d="m438.5 219.4c-1.6 0-3.2 1.5-3.2 3.7 0 2.1 1.6 3.6 3.2 3.6h5.7v3h-5.7c-3.6 0-6.2-3.1-6.2-6.6 0-3.6 2.6-6.7 6.2-6.7h5.7v3z"/><path class="a" d="m449.8 223.1c0 3.6-2.5 6.5-5.6 6.5-3.2 0-5.7-2.9-5.7-6.5 0-3.7 2.5-6.6 5.7-6.6 3.1 0 5.6 2.9 5.6 6.6z"/><path fill-rule="evenodd" class="b" d="m438.5 223.1c0-3.7 2.5-6.6 5.7-6.6 3.1 0 5.6 2.9 5.6 6.6 0 3.6-2.5 6.5-5.6 6.5-3.2 0-5.7-2.9-5.7-6.5zm5.7 3.5c1 0 2.6-1.1 2.6-3.5 0-2.5-1.6-3.6-2.6-3.6-1.1 0-2.7 1.1-2.7 3.6 0 2.4 1.6 3.5 2.7 3.5z"/><path fill-rule="evenodd" class="b" d="m429.5 145.5c-1 1.3-0.8 3.4 0.9 4.8 1.8 1.4 3.9 1.1 4.9-0.2 0.2-0.3 1-1.2 1.8-2.1q0.1-0.1 0.1-0.2c0.9-1 1.7-2 2-2.3l2.3 1.9c-0.3 0.3-1.1 1.4-2 2.4l-0.1 0.1c-0.8 1-1.6 1.8-1.8 2.1-2.2 2.8-6.3 2.9-9 0.6-2.8-2.2-3.6-6.2-1.4-8.9 0.4-0.5 1.2-1.5 2-2.4l0.1-0.1c0.8-1 1.5-1.8 1.8-2.2l2.4 1.9c-0.3 0.4-1.1 1.3-1.9 2.2q0 0-0.1 0.1c-0.8 1-1.6 1.9-2 2.3z"/><path class="a" d="m439.7 139c2.8 2.3 3.7 6 1.9 8.2-1.8 2.2-5.5 2.2-8.4-0.1-2.8-2.2-3.7-5.9-1.9-8.1 1.8-2.3 5.5-2.2 8.4 0z"/><path fill-rule="evenodd" class="b" d="m433.2 147.1c-2.8-2.2-3.7-5.9-1.9-8.1 1.8-2.3 5.5-2.2 8.4 0 2.8 2.3 3.7 6 1.9 8.2-1.8 2.2-5.5 2.2-8.4-0.1zm6.1-1.8c0.3-0.4 0.6-2.2-1.5-3.9-2.1-1.7-3.8-1-4.2-0.6-0.3 0.5-0.6 2.3 1.5 4 2.1 1.7 3.8 1 4.2 0.5z"/><path fill-rule="evenodd" class="b" d="m431.5 296c-1-1.3-0.8-3.4 0.9-4.8 1.8-1.4 3.9-1.1 4.9 0.2 0.2 0.3 1 1.2 1.8 2.1q0.1 0.1 0.1 0.2c0.9 1 1.7 2 2 2.3l2.3-1.9c-0.3-0.3-1.1-1.4-2-2.4l-0.1-0.1c-0.8-1-1.6-1.9-1.8-2.1-2.2-2.8-6.3-2.9-9-0.6-2.8 2.2-3.6 6.2-1.4 8.9 0.4 0.5 1.2 1.5 2 2.4l0.1 0.1c0.8 1 1.5 1.8 1.8 2.2l2.4-1.9c-0.3-0.4-1.1-1.3-1.9-2.2q0 0-0.1-0.1c-0.8-1-1.6-1.9-2-2.3z"/><path class="a" d="m441.7 302.5c2.8-2.3 3.7-6 1.9-8.2-1.8-2.2-5.5-2.2-8.4 0.1-2.8 2.2-3.7 5.9-1.9 8.1 1.8 2.3 5.5 2.2 8.4 0z"/><path fill-rule="evenodd" class="b" d="m443.6 294.3c1.8 2.2 0.9 5.9-1.9 8.2-2.9 2.2-6.6 2.3-8.4 0-1.8-2.2-0.9-5.9 1.9-8.1 2.9-2.3 6.6-2.3 8.4-0.1zm-6.5 2.4c-2.1 1.7-1.8 3.5-1.5 4 0.4 0.4 2.1 1.1 4.2-0.6 2.1-1.7 1.8-3.5 1.5-3.9-0.4-0.5-2.1-1.2-4.2 0.5z"/><path fill-rule="evenodd" class="b" d="m411.5 86.3c0.4 0.6 1.2 1.2 2.4 1.6 1.1 0.3 2.2 0.4 2.9 0.2 0.8-0.2 1.2-0.6 1.3-1 0.1-0.3 0.6-1.7 1.1-3q0.1-0.2 0.2-0.3c0.5-1.5 1.1-3 1.2-3.3l2.8 0.9c-0.1 0.5-0.7 2-1.2 3.4l-0.1 0.2c-0.6 1.4-1.1 2.8-1.2 3-0.5 1.6-1.8 2.6-3.3 3-1.4 0.3-3.1 0.2-4.7-0.3-1.6-0.5-2.9-1.4-3.8-2.6-0.9-1.2-1.3-2.8-0.8-4.3 0.1-0.5 0.7-2 1.3-3.4v-0.1c0.6-1.4 1.1-2.8 1.2-3.1l2.8 0.9c-0.1 0.4-0.6 1.8-1.1 3.1q-0.1 0.1-0.1 0.2c-0.6 1.5-1.1 2.9-1.3 3.3-0.1 0.5 0 1 0.4 1.6z"/><path class="a" d="m418.5 75.2c3.5 1.2 5.7 3.9 4.9 6-0.7 2.2-4.1 3-7.5 1.8-3.5-1.1-5.7-3.8-4.9-6 0.7-2.1 4.1-2.9 7.5-1.8z"/><path fill-rule="evenodd" class="b" d="m415.9 83c-3.5-1.1-5.7-3.8-4.9-6 0.7-2.1 4.1-2.9 7.5-1.8 3.5 1.2 5.7 3.9 4.9 6-0.7 2.2-4.1 3-7.5 1.8zm4.7-2.6q0 0 0 0 0 0 0 0zm0.1-0.2q0 0-0.1 0 0.1 0 0.1 0zm-6.9-2.3q0 0 0 0 0 0 0 0zm-0.1 0.2q0 0 0.1 0-0.1 0-0.1 0zm6.5 1.6c-0.5-0.5-1.4-1.2-2.6-1.6-1.3-0.5-2.5-0.5-3.2-0.3q-0.4 0.1-0.5 0.2 0 0.1 0.3 0.5c0.5 0.6 1.4 1.2 2.6 1.7 1.3 0.4 2.4 0.4 3.2 0.2q0.4-0.1 0.5-0.2 0-0.1-0.3-0.5z"/><path fill-rule="evenodd" class="b" d="m412.4 359.9c0.5-0.6 1.3-1.2 2.4-1.6 1.1-0.3 2.2-0.4 3-0.2 0.7 0.2 1.1 0.6 1.2 1 0.2 0.3 0.7 1.7 1.2 3q0 0.2 0.1 0.3c0.6 1.5 1.1 3 1.2 3.3l2.9-0.9c-0.2-0.5-0.7-2-1.3-3.4l-0.1-0.2c-0.5-1.4-1-2.8-1.1-3-0.6-1.6-1.9-2.6-3.4-3-1.4-0.3-3.1-0.2-4.7 0.3-1.5 0.5-2.9 1.4-3.8 2.6-0.9 1.2-1.3 2.8-0.8 4.3 0.2 0.5 0.8 2 1.3 3.4v0.1c0.6 1.4 1.1 2.8 1.2 3.1l2.9-0.9c-0.2-0.4-0.7-1.8-1.2-3.1q0-0.1-0.1-0.2c-0.5-1.5-1.1-2.9-1.2-3.3-0.2-0.5-0.1-1 0.3-1.6z"/><path class="a" d="m419.5 371c3.4-1.2 5.6-3.9 4.9-6-0.7-2.2-4.1-3-7.6-1.8-3.4 1.1-5.6 3.8-4.9 6 0.7 2.1 4.1 3 7.6 1.8z"/><path fill-rule="evenodd" class="b" d="m424.4 365c0.7 2.1-1.5 4.8-4.9 6-3.5 1.2-6.9 0.3-7.6-1.8-0.7-2.2 1.5-4.9 4.9-6 3.5-1.2 6.9-0.4 7.6 1.8zm-2.9 0.8q0 0 0 0 0 0 0 0zm0.1 0.2q0 0 0 0 0 0 0 0zm-6.8 2.4q0 0 0-0.1 0 0.1 0 0.1zm-0.1-0.3q0 0 0 0 0 0 0 0zm6.8-2.1q-0.2-0.1-0.6-0.2c-0.7-0.2-1.8-0.2-3.1 0.2-1.3 0.5-2.2 1.1-2.7 1.7q-0.3 0.4-0.3 0.5 0.1 0.1 0.5 0.2c0.8 0.2 1.9 0.2 3.2-0.3 1.3-0.4 2.2-1.1 2.7-1.6q0.2-0.4 0.3-0.5z"/></svg>